<?xml version="1.0" encoding="utf-8"?>
<!-- Generator: Adobe Illustrator 10.0, SVG Export Plug-In . SVG Version: 3.0.0 Build 77)  -->
<!DOCTYPE svg PUBLIC "-//W3C//DTD SVG 1.0//EN"    "http://www.w3.org/TR/2001/REC-SVG-20010904/DTD/svg10.dtd" [
	<!ENTITY ns_flows "http://ns.adobe.com/Flows/1.0/">
	<!ENTITY ns_extend "http://ns.adobe.com/Extensibility/1.0/">
	<!ENTITY ns_ai "http://ns.adobe.com/AdobeIllustrator/10.0/">
	<!ENTITY ns_graphs "http://ns.adobe.com/Graphs/1.0/">
	<!ENTITY ns_vars "http://ns.adobe.com/Variables/1.0/">
	<!ENTITY ns_imrep "http://ns.adobe.com/ImageReplacement/1.0/">
	<!ENTITY ns_sfw "http://ns.adobe.com/SaveForWeb/1.0/">
	<!ENTITY ns_custom "http://ns.adobe.com/GenericCustomNamespace/1.0/">
	<!ENTITY ns_adobe_xpath "http://ns.adobe.com/XPath/1.0/">
	<!ENTITY ns_svg "http://www.w3.org/2000/svg">
	<!ENTITY ns_xlink "http://www.w3.org/1999/xlink">
]>
<svg 
	 xmlns:x="&ns_extend;" xmlns:i="&ns_ai;" xmlns:graph="&ns_graphs;" i:viewOrigin="270 467" i:rulerOrigin="0 0" i:pageBounds="0 792 612 0"
	 xmlns="&ns_svg;" xmlns:xlink="&ns_xlink;" xmlns:a="http://ns.adobe.com/AdobeSVGViewerExtensions/3.0/"
	 width="71.73" height="143.242" viewBox="0 0 71.73 143.242" overflow="visible" enable-background="new 0 0 71.73 143.242"
	 xml:space="preserve">
	<metadata>
		<variableSets  xmlns="&ns_vars;">
			<variableSet  varSetName="binding1" locked="none">
				<variables></variables>
				<v:sampleDataSets  xmlns="&ns_custom;" xmlns:v="&ns_vars;"></v:sampleDataSets>
			</variableSet>
		</variableSets>
		<sfw  xmlns="&ns_sfw;">
			<slices></slices>
			<sliceSourceBounds  y="323.758" x="270" width="71.73" height="143.242" bottomLeftOrigin="true"></sliceSourceBounds>
		</sfw>
	</metadata>
	<g id="Layer_1" i:layer="yes" i:dimmedPercent="50" i:rgbTrio="#4F008000FFFF">
		<g>
			<path i:knockout="Off" d="M71.73,122.035c0-6.387-8.371-11.897-20.48-14.469c-6.877-3.049-11.961-10.388-11.961-27.736
				c0-16.084,4.369-13.968,10.488-19.169H47.67c-2.172,2.322-6.543,3.912-11.595,3.912c-5.052,0-9.423-1.59-11.595-3.912h-2.76
				c6.119,5.201,10.486,3.085,10.486,19.169c0,17.536-5.193,24.849-12.184,27.836C8.164,110.278,0,115.729,0,122.035
				c0,5.446,6.094,10.254,15.4,13.148c-2.572,0.82-4.073,1.807-4.073,2.865c0,2.869,10.985,5.193,24.538,5.193
				c13.553,0,24.539-2.324,24.539-5.193c0-1.059-1.504-2.045-4.074-2.865C65.635,132.289,71.73,127.481,71.73,122.035"/>
			<path i:knockout="Off" d="M43.549,60.874c0,0.717-3.377,1.298-7.548,1.298c-4.172,0-7.55-0.581-7.55-1.298
				c0-0.716,3.378-1.298,7.55-1.298C40.172,59.576,43.549,60.158,43.549,60.874"/>
			<path i:knockout="Off" fill="#D70751" d="M38.883,52.249c-7.997-2.877-12.747-6.408-17.955-14.288
				c-1.278-2.171-3.628-7.016-3.539-13.34c-0.208-6.305,2.978-13.57,8.924-17.447c5.742-4.092,13.152-4.153,17.56-2.537
				c4.547,1.688,6.391,4.5,6.443,4.366c-0.139,0.035,2.436,2.201,3.584,6.916c1.279,4.532-0.02,12.044-6.271,15.12
				c-2.875,1.541-6.609,1.82-9.537,0.718c-2.928-1.181-5.053-3.774-5.761-6.483c-1.543-5.981,2.995-9.296,4.997-9.636
				c8.145-2.716,12.27,10.03,2.744,11.114c4.342,1.45,8.818-3.006,7.967-7.545c-0.172-4.54-5.668-9.046-11.73-7.199
				c-1.583,0.437-3.98,1.548-5.856,4.047c-1.924,2.484-2.797,6.377-1.797,10.161c0.975,3.805,3.94,7.447,8.07,9.084
				c4.172,1.539,8.817,1.099,12.653-0.897c8.189-4.051,9.828-13.922,8.201-19.353c-1.436-5.837-4.607-8.51-4.443-8.551
				c-0.059,0.159-2.34-3.309-7.977-5.414c-5.512-2.01-14.106-1.868-20.987,2.957c-7.042,4.516-10.857,13.39-10.58,20.542
				c-0.095,7.263,2.612,12.822,4.089,15.293C23.636,48.957,30.458,51.795,38.883,52.249"/>
		</g>
	</g>
</svg>
